<svg xmlns="http://www.w3.org/2000/svg" xmlns:xlink="http://www.w3.org/1999/xlink" width="500" zoomAndPan="magnify" viewBox="0 0 375 374.999991" height="500" preserveAspectRatio="xMidYMid meet" version="1.0"><defs><clipPath id="a0f43c31b8"><path d="M 54 78.382812 L 321 78.382812 L 321 296.953125 L 54 296.953125 Z M 54 78.382812 " clip-rule="nonzero"/></clipPath></defs><g clip-path="url(#a0f43c31b8)"><path fill="#000000" d="M 283.210938 188.03125 C 277.644531 186.175781 271.578125 185.019531 265.726562 184.96875 C 230.425781 184.683594 195.121094 184.816406 159.820312 184.808594 C 158.308594 184.808594 156.796875 184.808594 154.894531 184.808594 C 154.894531 170.835938 154.671875 157.355469 154.875 114.644531 L 133.332031 114.644531 C 133.492188 157.015625 133.351562 170.089844 133.351562 183.144531 C 133.351562 183.484375 133.21875 183.832031 133.09375 184.40625 C 117.316406 186.21875 102.851562 183.953125 91.050781 172 C 70.121094 150.800781 71.402344 113.71875 93.886719 94.179688 C 101.875 87.234375 111.214844 83.898438 121.761719 83.886719 C 136.320312 83.878906 150.875 83.871094 312.261719 83.871094 L 312.261719 78.40625 C 147.296875 78.382812 129.164062 78.363281 111.027344 78.425781 C 87.144531 78.503906 67.453125 91.996094 58.417969 114.058594 C 44.808594 147.292969 67.914062 186.28125 103.734375 189.699219 C 115.554688 190.828125 127.550781 190.285156 139.472656 190.324219 C 165.113281 190.394531 190.753906 190.421875 216.398438 190.277344 C 220.042969 190.261719 221.03125 191.308594 220.976562 194.914062 C 220.765625 208.609375 220.90625 222.304688 220.863281 236 C 220.863281 236.621094 220.835938 237.226562 220.800781 269.765625 L 242.46875 269.765625 C 242.429688 237.324219 242.414062 236.808594 242.414062 236.285156 C 242.359375 222.234375 242.457031 208.175781 242.324219 194.125 C 242.296875 191.183594 243.125 190.03125 246.148438 190.332031 C 252.765625 190.988281 259.703125 190.410156 265.964844 192.222656 C 284.402344 197.578125 294.464844 211.21875 298.253906 229.277344 C 302.503906 249.542969 297.105469 267.304688 281.433594 281.339844 C 273.554688 288.390625 264.035156 291.359375 253.460938 291.332031 C 229.855469 291.277344 206.242188 291.296875 66.644531 291.304688 L 66.644531 296.773438 C 210.3125 296.828125 238.003906 296.925781 265.679688 296.792969 C 292.460938 296.660156 316.085938 276.632812 320.195312 250.992188 C 324.714844 222.8125 309.65625 196.851562 283.210938 188.03125 Z M 283.210938 188.03125 " fill-opacity="1" fill-rule="nonzero"/></g><path fill="#000000" d="M 220.917969 175.417969 L 242.386719 175.417969 C 242.40625 164.585938 242.34375 153.003906 242.414062 115.46875 L 220.863281 115.46875 C 220.898438 153.597656 220.871094 164.203125 220.898438 174.808594 C 220.898438 175.003906 220.90625 175.214844 220.917969 175.417969 Z M 220.917969 175.417969 " fill-opacity="1" fill-rule="nonzero"/><path fill="#000000" d="M 154.847656 198.308594 L 133.40625 198.308594 C 133.386719 198.832031 133.378906 199.433594 133.378906 200.179688 C 133.371094 211.957031 133.386719 223.734375 133.359375 235.503906 C 133.359375 236.300781 133.316406 237.066406 133.261719 269.765625 L 154.902344 269.765625 C 154.882812 237.464844 154.859375 237.109375 154.859375 236.753906 C 154.777344 224.382812 154.707031 212.011719 154.910156 199.648438 C 154.921875 199.140625 154.894531 198.707031 154.847656 198.308594 Z M 154.847656 198.308594 " fill-opacity="1" fill-rule="nonzero"/></svg>